<?xml version="1.0" encoding="utf-8"?>
<svg viewBox="0 0 24 24" xmlns="http://www.w3.org/2000/svg">
	<ellipse
		style="
			paint-order: stroke;
			fill: rgb(88, 88, 88);
			stroke: rgba(0, 0, 0, 0);
			transform-origin: 12px 12.003px;
		"
		cx="12"
		cy="12.003"
		rx="11.482"
		ry="11.505"
	/>
	<path
		d="M 3 14.681 L 3 9.5 L 4.294 9.5 L 4.294 11.227 L 6.022 11.227 L 6.022 9.5 L 7.318 9.5 L 7.318 14.681 L 6.022 14.681 L 6.022 12.522 L 4.294 12.522 L 4.294 14.681 L 3 14.681 Z M 9.477 14.681 L 9.477 10.794 L 8.181 10.794 L 8.181 9.5 L 12.068 9.5 L 12.068 10.794 L 10.772 10.794 L 10.772 14.681 L 9.477 14.681 Z M 14.227 14.681 L 14.227 10.794 L 12.931 10.794 L 12.931 9.5 L 16.818 9.5 L 16.818 10.794 L 15.522 10.794 L 15.522 14.681 L 14.227 14.681 Z M 17.681 14.681 L 17.681 9.5 L 20.703 9.5 C 21.05 9.5 21.352 9.628 21.612 9.887 C 21.871 10.147 22 10.45 22 10.794 L 22 11.659 C 22 12.003 21.871 12.306 21.612 12.565 C 21.352 12.825 21.05 12.953 20.703 12.953 L 18.977 12.953 L 18.977 14.681 L 17.681 14.681 Z M 18.977 11.659 L 20.703 11.659 L 20.703 10.794 L 18.977 10.794 L 18.977 11.659 Z"
		style="fill: rgb(255, 255, 255); transform-origin: 12.96px 14.505px"
	/>
</svg>
